<svg width="50" height="46" viewBox="0 0 50 46" fill="none" xmlns="http://www.w3.org/2000/svg">
<g id="&#240;&#159;&#166;&#134; icon &#34;shop alt&#34;">
<path id="Vector" d="M44.9341 2.1169H35.672L36.8322 13.7186C36.8322 13.7186 39.1525 16.039 42.633 16.039C45.132 16.039 46.8336 14.8427 47.5946 14.1681C47.8979 13.8992 48.0088 13.4887 47.9422 13.0889L46.3073 3.28023C46.1955 2.60893 45.6147 2.1169 44.9341 2.1169Z" stroke="#6196E4" stroke-width="3.48052"/>
<path id="Vector_2" d="M35.672 2.1169L36.8322 13.7186C36.8322 13.7186 34.5118 16.039 31.0313 16.039C27.5508 16.039 25.2305 13.7186 25.2305 13.7186V2.1169H35.672Z" stroke="#6196E4" stroke-width="3.48052"/>
<path id="Vector_3" d="M25.2304 2.1169V13.7186C25.2304 13.7186 22.9101 16.039 19.4295 16.039C15.949 16.039 13.6287 13.7186 13.6287 13.7186L14.7888 2.1169H25.2304Z" stroke="#6196E4" stroke-width="3.48052"/>
<path id="Vector_4" d="M14.7889 2.1169H5.52669C4.84614 2.1169 4.26533 2.60893 4.15344 3.28023L2.51865 13.0889C2.45203 13.4887 2.56301 13.8992 2.86628 14.1681C3.62717 14.8427 5.32872 16.039 7.8278 16.039C11.3083 16.039 13.6287 13.7186 13.6287 13.7186L14.7889 2.1169Z" stroke="#6196E4" stroke-width="3.48052"/>
<path id="Vector_5" d="M4.36292 16.039V39.2424C4.36292 41.8055 6.44062 43.8831 9.00361 43.8831H41.4884C44.0515 43.8831 46.1291 41.8055 46.1291 39.2424V16.039" stroke="#6196E4" stroke-width="3.48052"/>
<path id="Vector_6" d="M31.8202 43.8831V29.961C31.8202 27.398 29.7426 25.3203 27.1795 25.3203H22.5389C19.9759 25.3203 17.8982 27.398 17.8982 29.961V43.8831" stroke="#6196E4" stroke-width="3.48052" stroke-miterlimit="16"/>
</g>
</svg>
