<svg width="50" height="50" viewBox="0 0 50 50" fill="none" xmlns="http://www.w3.org/2000/svg">
<g id="&#240;&#159;&#166;&#134; icon &#34;leaderboard star&#34;">
<path id="Vector" d="M32.2681 47.7304H17.1144V26.5154C17.1144 25.6784 17.7929 25 18.6298 25H30.7527C31.5897 25 32.2681 25.6784 32.2681 26.5154V47.7304Z" stroke="#BDBDBD" stroke-width="3.7884" stroke-linecap="round" stroke-linejoin="round"/>
<path id="Vector_2" d="M45.9063 47.7304H32.268V40.4062C32.268 39.5692 32.9464 38.8908 33.7834 38.8908H45.9063C46.7432 38.8908 47.4216 39.5692 47.4216 40.4062V46.2151C47.4216 47.0521 46.7432 47.7304 45.9063 47.7304Z" stroke="#BDBDBD" stroke-width="3.7884" stroke-linecap="round" stroke-linejoin="round"/>
<path id="Vector_3" d="M17.1144 47.7304V35.355C17.1144 34.518 16.436 33.8396 15.5991 33.8396H3.47618C2.63927 33.8396 1.96082 34.518 1.96082 35.355V46.2151C1.96082 47.052 2.63927 47.7304 3.47618 47.7304H17.1144Z" stroke="#BDBDBD" stroke-width="3.7884" stroke-linecap="round" stroke-linejoin="round"/>
<path id="Vector_4" d="M21.6747 7.60683L23.9707 2.73835C24.2654 2.11334 25.117 2.11334 25.4118 2.73835L27.7078 7.60683L32.8426 8.39234C33.5015 8.49314 33.7639 9.3407 33.2871 9.82693L29.5722 13.6138L30.4488 18.9638C30.5615 19.6508 29.8725 20.1749 29.283 19.8503L24.6912 17.323L20.0994 19.8503C19.51 20.1749 18.8209 19.6508 18.9335 18.9638L19.8103 13.6138L16.0954 9.82693C15.6184 9.3407 15.881 8.49314 16.5398 8.39234L21.6747 7.60683Z" stroke="#BDBDBD" stroke-width="3.7884" stroke-linecap="round" stroke-linejoin="round"/>
</g>
</svg>
