<svg width="50" height="40" viewBox="0 0 50 40" fill="none" xmlns="http://www.w3.org/2000/svg">
<g id="&#240;&#159;&#166;&#134; icon &#34;group&#34;">
<path id="Vector" d="M2.03918 37.5644V35.498C2.03918 27.5093 8.51531 21.0332 16.504 21.0332C24.4927 21.0332 30.9688 27.5093 30.9688 35.498V37.5644" stroke="#6196E4" stroke-width="3.0996" stroke-linecap="round"/>
<path id="Vector_2" d="M26.8361 25.166C26.8361 19.4598 31.4619 14.834 37.1681 14.834C42.8742 14.834 47.5001 19.4598 47.5001 25.166V26.1992" stroke="#6196E4" stroke-width="3.0996" stroke-linecap="round"/>
<path id="Vector_3" d="M16.504 21.0332C21.0689 21.0332 24.7696 17.3325 24.7696 12.7676C24.7696 8.20263 21.0689 4.502 16.504 4.502C11.939 4.502 8.2384 8.20263 8.2384 12.7676C8.2384 17.3325 11.939 21.0332 16.504 21.0332Z" stroke="#6196E4" stroke-width="3.0996" stroke-linecap="round" stroke-linejoin="round"/>
<path id="Vector_4" d="M37.168 14.834C40.5918 14.834 43.3672 12.0585 43.3672 8.6348C43.3672 5.21108 40.5918 2.43559 37.168 2.43559C33.7441 2.43559 30.9688 5.21108 30.9688 8.6348C30.9688 12.0585 33.7441 14.834 37.168 14.834Z" stroke="#6196E4" stroke-width="3.0996" stroke-linecap="round" stroke-linejoin="round"/>
</g>
</svg>
